# xmcd
#
# Track frame offsets: 
#        150
#        15083
#        29815
#        44373
#        60667
#        73895
#        88419
#        103103
#        115565
#        130338
#        147914
#
# Disc length: 2153 seconds
#
# Revision: 0
# Processed by: cddbd v1.5.2PL0 Copyright (c) Steve Scherf et al.
# Submitted via: ExactAudioCopyFreeDBPlugin 1.0
#
DISCID=9c08670b
DTITLE=Randy Rogers Band - Hellbent
DYEAR=2019
DGENRE=Country
TTITLE0=Drinking Money
TTITLE1=I'll Never Get Over You
TTITLE2=Anchors Away
TTITLE3=Comal County Line
TTITLE4=Hell Bent On A Heartache
TTITLE5=You, Me And A Bottle
TTITLE6=We Never Made It To Mexico
TTITLE7=Crazy People
TTITLE8=Fire In The Hole
TTITLE9=Wine In A Coffee Cup
TTITLE10=Good One Coming On
EXTD=
EXTT0=
EXTT1=
EXTT2=
EXTT3=
EXTT4=
EXTT5=
EXTT6=
EXTT7=
EXTT8=
EXTT9=
EXTT10=
PLAYORDER=
